<?xml version="1.0" standalone="no"?>
<!DOCTYPE svg PUBLIC "-//W3C//DTD SVG 20010904//EN"
 "http://www.w3.org/TR/2001/REC-SVG-20010904/DTD/svg10.dtd">
<svg version="1.0" xmlns="http://www.w3.org/2000/svg"
 width="275.000000pt" height="300.000000pt" viewBox="0 0 275.000000 300.000000"
 preserveAspectRatio="xMidYMid meet">
<metadata>
Created by potrace 1.16, written by Peter Selinger 2001-2019
</metadata>
<g transform="translate(0.000000,300.000000) scale(0.100000,-0.100000)"
fill="#000000" stroke="none">
<path d="M10 1500 l0 -1490 1365 0 1365 0 0 1490 0 1490 -1365 0 -1365 0 0
-1490z m97 -703 c-1 -386 -2 -70 -2 703 0 773 1 1089 2 702 2 -386 2 -1018 0
-1405z m1901 2096 c-344 -2 -911 -2 -1260 0 -348 1 -66 2 627 2 693 0 978 -1
633 -2z m639 -2096 c-1 -386 -2 -70 -2 703 0 773 1 1089 2 702 2 -386 2 -1018
0 -1405z m-17 703 l0 -1380 -1255 0 -1255 0 0 1380 0 1380 1255 0 1255 0 0
-1380z m-622 -1397 c-344 -2 -911 -2 -1260 0 -348 1 -66 2 627 2 693 0 978 -1
633 -2z"/>
<path d="M340 2621 c0 -5 7 -14 15 -21 13 -11 14 -10 9 6 -6 17 -5 17 8 -1 8
-11 23 -33 33 -50 l18 -30 -27 30 c-26 29 -26 16 0 -15 7 -8 22 -37 33 -65 11
-27 20 -45 20 -39 1 6 -6 29 -15 50 -9 22 -11 35 -6 29 5 -5 30 -68 55 -140
25 -71 72 -206 105 -300 33 -93 81 -228 106 -300 l46 -130 0 -225 c0 -167 -4
-237 -15 -272 l-14 -48 161 0 160 0 -7 28 c-4 15 -10 133 -12 264 -5 264 -9
236 77 478 28 80 57 163 65 185 20 60 141 406 154 438 12 31 81 136 81 124 0
-5 -13 -28 -30 -52 -30 -43 -70 -135 -70 -158 1 -7 12 16 25 51 13 34 37 81
53 105 16 23 32 47 36 54 5 9 -43 12 -209 12 -137 0 -213 -3 -210 -10 4 -5 10
-7 13 -5 4 2 15 -8 23 -23 17 -29 19 -22 -71 -311 -11 -36 -33 -107 -48 -158
l-27 -92 -44 142 c-24 79 -52 170 -61 203 -62 209 -58 188 -38 220 10 17 20
29 24 27 3 -2 8 -1 11 2 3 3 -92 5 -211 5 -119 0 -216 -4 -216 -8z"/>
<path d="M1708 1845 c-32 -30 -58 -58 -58 -62 0 -4 24 15 53 42 33 32 27 24
-15 -20 l-68 -71 0 -315 0 -316 60 -57 c33 -32 60 -60 60 -64 0 -3 -29 23 -65
58 l-66 65 3 322 c2 178 0 323 -4 323 -5 0 -8 -145 -8 -323 l0 -323 68 -66 67
-67 184 -1 c116 0 190 -5 198 -12 18 -15 19 -331 1 -346 -22 -17 -190 -13
-210 5 -22 20 -24 85 -3 143 26 73 33 70 -146 70 l-161 0 7 -27 c4 -16 9 -95
12 -178 l4 -150 67 -67 66 -68 262 0 c247 0 262 1 279 20 10 11 21 17 25 15 4
-3 14 3 21 12 12 14 12 16 -1 8 -13 -8 -13 -6 -1 8 7 9 17 15 21 12 4 -3 14 3
21 12 12 14 12 16 -1 8 -12 -7 -13 -6 -2 6 7 8 18 14 25 14 9 0 13 80 15 325
l2 325 -36 38 c-19 20 -38 37 -42 37 -3 0 11 -17 31 -38 l37 -38 -3 -325 -2
-324 -3 325 -2 324 -62 65 c-35 35 -57 60 -49 56 9 -5 12 -3 10 4 -4 10 -53
13 -194 12 -122 0 -193 3 -202 11 -10 8 -13 50 -13 168 0 136 2 159 17 171 11
10 14 10 9 2 -5 -10 16 -13 95 -13 l101 0 -4 -70 c-2 -38 0 -64 4 -57 4 7 8
40 8 74 l0 62 -95 4 -95 3 97 0 98 -1 3 -50 c4 -59 -18 -168 -28 -139 -6 16
-7 16 -12 -3 -6 -21 -4 -21 168 -23 99 0 174 3 174 8 0 5 -7 29 -15 52 -10 29
-15 83 -15 173 l0 131 -42 46 -43 45 48 -45 47 -44 0 -136 c0 -74 4 -140 8
-147 4 -6 6 55 4 135 l-3 147 -77 78 -77 77 -250 0 -250 -1 -57 -54z"/>
</g>
</svg>
